<?xml version="1.0" encoding="UTF-8"?>
<svg id="Layer_2" data-name="Layer 2" xmlns="http://www.w3.org/2000/svg" viewBox="0 0 229.51 226.96">
  <defs>
    <style>
      .cls-1 {
        fill: #5c5238;
      }

      .cls-2 {
        fill: #7e1a1a;
      }
    </style>
  </defs>
  <path class="cls-2" d="M124.99,92.55l15.66-47.1h-13.4l-8.07,44.92c-7.4-40.5-4.38-55.12-69.28-71.97-6.71,34.39,10.46,71.24,51.5,62.38-12.63-9.58-20.91-12.04-37.96-41.61,36.22,36.75,45.42,33.35,49.38,52.27-50.84-16.93-64.55,16.38-64.55,53.84s36.81,75.21,70.36,58.26c33.54,16.96,70.36-19.4,70.36-58.26,0-47.92-18.59-68.35-63.99-52.72ZM152.36,194.64c7.05-9.62,11.47-23.52,11.47-36.02,0-61.44-24.59-51.97-45.74-54.13,40.89-16.48,59.35-7.13,59.35,42.23,0,23.11-12.82,42.16-25.08,47.92Z"/>
  <path class="cls-1" d="M101.4,80.77c-12.63-9.58-20.91-12.04-37.96-41.61,36.22,36.75,45.42,33.35,49.38,52.27,10.13,5.46,12.17,1.12,12.17,1.12l15.66-47.1h-13.4l-8.07,44.92c-7.4-40.5-4.38-55.12-69.28-71.97-6.71,34.39,10.46,71.24,51.5,62.38Z"/>
</svg>